<svg id="Capa_1" data-name="Capa 1" xmlns="http://www.w3.org/2000/svg" viewBox="0 0 512 512"><defs><style>.cls-1{fill:#fff;}</style></defs><title>add</title><path class="cls-1" d="M256,0C114.84,0,0,114.84,0,256S114.84,512,256,512,512,397.16,512,256,397.16,0,256,0Zm0,475.43C135,475.43,36.57,377,36.57,256S135,36.57,256,36.57,475.43,135,475.43,256,377,475.43,256,475.43Z"/><path class="cls-1" d="M256,134.1a18.28,18.28,0,0,0-18.29,18.28V359.62a18.29,18.29,0,0,0,36.58,0V152.38A18.28,18.28,0,0,0,256,134.1Z"/><path class="cls-1" d="M359.62,237.71H152.38a18.29,18.29,0,0,0,0,36.58H359.62a18.29,18.29,0,1,0,0-36.58Z"/></svg>