<?xml version="1.0" encoding="utf-8"?>
<!-- Generator: Adobe Illustrator 24.0.3, SVG Export Plug-In . SVG Version: 6.00 Build 0)  -->
<svg version="1.1" id="Capa_1" xmlns="http://www.w3.org/2000/svg" xmlns:xlink="http://www.w3.org/1999/xlink" x="0px" y="0px"
	 viewBox="0 0 512 512" style="enable-background:new 0 0 512 512;" xml:space="preserve">
<style type="text/css">
	.st0{fill:#FC941C;}
</style>
<title>add</title>
<path class="st0" d="M256,0C114.8,0,0,114.8,0,256s114.8,256,256,256s256-114.8,256-256S397.2,0,256,0z M256,475.4
	C135,475.4,36.6,377,36.6,256S135,36.6,256,36.6S475.4,135,475.4,256S377,475.4,256,475.4z"/>
<path class="st0" d="M256,134.1c-10.1,0-18.3,8.2-18.3,18.3c0,0,0,0,0,0v207.2c0,10.1,8.2,18.3,18.3,18.3c10.1,0,18.3-8.2,18.3-18.3
	V152.4C274.3,142.3,266.1,134.1,256,134.1C256,134.1,256,134.1,256,134.1z"/>
<path class="st0" d="M359.6,237.7H152.4c-10.1,0-18.3,8.2-18.3,18.3c0,10.1,8.2,18.3,18.3,18.3h207.2c10.1,0,18.3-8.2,18.3-18.3
	S369.7,237.7,359.6,237.7C359.6,237.7,359.6,237.7,359.6,237.7z"/>
</svg>
