<?xml version="1.0" encoding="utf-8"?>
<!-- Generator: Adobe Illustrator 24.0.3, SVG Export Plug-In . SVG Version: 6.00 Build 0)  -->
<svg version="1.1" id="Layer_1" xmlns="http://www.w3.org/2000/svg" xmlns:xlink="http://www.w3.org/1999/xlink" x="0px" y="0px"
	 viewBox="0 0 512 512" style="enable-background:new 0 0 512 512;" xml:space="preserve">
<style type="text/css">
	.st0{fill:#FFFFFF;}
	.st1{fill:#56311C;}
</style>
<title>COFFEE CENTER</title>
<path class="st0" d="M407.4,401.9h-75.6c12.9-9.5,20.6-24.6,20.6-40.6v-5.4c29.6-2.7,51.5-29,48.7-58.7
	c-2.4-25.8-22.9-46.3-48.7-48.7v-24.3c0-2.8-2.2-5-5-5h-64.6c13.4-22,27.8-49.3,27.8-64.9c-0.4-30.2-25.1-54.3-55.3-53.9
	c-29.6,0.4-53.6,24.3-53.9,53.9c0,15.6,14.4,42.9,27.8,64.9h-64.6c-2.8,0-5,2.2-5,5v137.1c0,16,7.6,31.1,20.6,40.6h-75.6
	c-2.8,0-5,2.2-5,5s2.2,5,5,5h302.9c2.8,0,5-2.2,5-5S410.2,401.9,407.4,401.9L407.4,401.9z M391.3,302.1c0,22.3-16.8,41.1-38.9,43.6
	v-87.3C374.6,261.1,391.3,279.8,391.3,302.1z M256,109.6c24.6,0,44.6,20,44.6,44.6c0,19.3-29.2,65.5-44.6,87.8
	c-15.4-22.3-44.6-68.5-44.6-87.8C211.4,129.6,231.4,109.6,256,109.6z M210.3,401.9c-22.4,0-40.6-18.2-40.7-40.6V229.1h65.9
	c8.6,13.5,15.7,23.4,16.5,24.5c1.6,2.2,4.7,2.8,7,1.1c0.4-0.3,0.8-0.7,1.1-1.1c0.8-1.1,7.8-11,16.5-24.5h65.9v132.1
	c0,22.4-18.2,40.6-40.6,40.6H210.3z"/>
<path class="st1" d="M282.6,154.2c0-14.7-11.9-26.6-26.6-26.6c-14.7,0-26.6,11.9-26.6,26.6c0,14.7,11.9,26.6,26.6,26.6
	C270.7,180.8,282.6,168.9,282.6,154.2z M239.4,154.2c0-9.2,7.4-16.6,16.6-16.6c9.2,0,16.6,7.4,16.6,16.6c0,9.2-7.4,16.6-16.6,16.6
	C246.8,170.8,239.4,163.4,239.4,154.2L239.4,154.2z"/>
</svg>
