<?xml version="1.0" encoding="utf-8"?>
<!-- Generator: Adobe Illustrator 24.0.3, SVG Export Plug-In . SVG Version: 6.00 Build 0)  -->
<svg version="1.1" id="Layer_1" xmlns="http://www.w3.org/2000/svg" xmlns:xlink="http://www.w3.org/1999/xlink" x="0px" y="0px"
	 viewBox="0 0 512 512" style="enable-background:new 0 0 512 512;" xml:space="preserve">
<style type="text/css">
	.st0{fill:#FFFFFF;}
</style>
<g>
	<path class="st0" d="M256,0C147.5,0,59.2,88.3,59.2,196.8c0,44.9,31.6,110,93.9,193.3c45.4,60.8,90.1,108.3,92,110.3L256,512
		l10.9-11.6c1.9-2,46.6-49.6,92-110.3c62.3-83.3,93.9-148.4,93.9-193.3C452.8,88.3,364.5,0,256,0z M335,371.9
		c-31.3,41.9-62.9,78.1-79,96c-16.1-17.9-47.6-54-78.9-95.8c-57.5-76.9-87.9-137.6-87.9-175.3C89.2,104.8,164,30,256,30
		s166.8,74.8,166.8,166.8C422.8,234.5,392.4,295.1,335,371.9L335,371.9z"/>
	<path class="st0" d="M256,91.4c-23.5,0-45.3,11.4-61.5,32.2c-15.3,19.6-23.7,45.5-23.7,72.9s8.4,53.3,23.7,72.9
		c16.2,20.7,38,32.2,61.5,32.2s45.3-11.4,61.5-32.2c15.3-19.6,23.7-45.5,23.7-72.9s-8.4-53.3-23.7-72.9
		C301.3,102.8,279.5,91.4,256,91.4z M218.2,251c-11.2-14.4-17.4-33.7-17.4-54.5s6.2-40.1,17.4-54.5c4.5-5.8,9.6-10.4,15-13.8
		c-1,6.3-1.6,13.6-1.6,22.2c0,26,5.6,39.7,10.5,51.8c4.4,10.9,8.3,20.4,8.3,40.5c0,12.5-1.6,21.1-3.6,27.9
		C236.2,268,226.2,261.3,218.2,251L218.2,251z M293.8,251c-4.5,5.8-9.6,10.4-15,13.8c1-6.3,1.6-13.6,1.6-22.2
		c0-26-5.6-39.7-10.5-51.8c-4.4-10.9-8.3-20.4-8.3-40.5c0-12.5,1.6-21.1,3.6-27.9c10.6,2.5,20.5,9.2,28.6,19.5
		c11.2,14.4,17.4,33.7,17.4,54.5S305,236.6,293.8,251L293.8,251z"/>
</g>
</svg>
