<?xml version="1.0" encoding="utf-8"?>
<!-- Generator: Adobe Illustrator 24.0.3, SVG Export Plug-In . SVG Version: 6.00 Build 0)  -->
<svg version="1.1" id="Layer_1" xmlns="http://www.w3.org/2000/svg" xmlns:xlink="http://www.w3.org/1999/xlink" x="0px" y="0px"
	 viewBox="0 0 512 512" style="enable-background:new 0 0 512 512;" xml:space="preserve">
<style type="text/css">
	.st0{fill:#FF9800;}
	.st1{fill:#EEEEEE;}
	.st2{fill:none;}
</style>
<g id="Filled_Outline">
	<path class="st0" d="M424,194.1C424,341.1,256,488,256,488S88,341.1,88,194.1c0-92.8,75.2-168,168-168S424,101.4,424,194.1
		L424,194.1z"/>
	<circle class="st1" cx="256" cy="192" r="136"/>
	<path class="st0" d="M200,184c0,56,40,96,40,96h64c0,0,40-40,40-96H200z"/>
	<path class="st2" d="M256,16C158.3,16.7,79.5,96.4,80,194.1c0,62.7,28.8,132.3,85.6,206.9c25.5,33.5,54,64.7,85.1,93
		c3,2.6,7.5,2.6,10.5,0c31.2-28.3,59.6-59.5,85.1-93c56.8-74.5,85.6-144.2,85.6-206.9C432.5,96.4,353.7,16.7,256,16L256,16z
		 M256,477.2c-28.2-26.3-160-156-160-283c0-88.4,71.6-160,160-160s160,71.6,160,160C416,321.2,284.2,450.9,256,477.2z"/>
	<path class="st2" d="M256,48c-79.5,0-144,64.5-144,144s64.5,144,144,144s144-64.5,144-144C399.9,112.5,335.5,48.1,256,48z M256,320
		c-70.7,0-128-57.3-128-128S185.3,64,256,64s128,57.3,128,128C383.9,262.7,326.7,319.9,256,320z"/>
	<path d="M344,176H200c-4.4,0-8,3.6-8,8c0,0.9,0.1,1.8,0.1,2.7c-7-1-14.1,0.6-19.9,4.6c-15.5,10.8-16.4,35.2-2.2,55.6
		c6,8.9,14.7,15.8,24.7,19.6c3.9,1.4,8,2.2,12.1,2.2c4.1,0,8.2-0.8,12-2.6c4.6,6.9,9.8,13.5,15.5,19.5c1.5,1.5,3.5,2.3,5.6,2.3h64
		c2.1,0,4.2-0.8,5.7-2.3c1.7-1.7,42.3-43,42.3-101.7C352,179.6,348.4,176,344,176z M200.1,251.5c-6.9-2.8-12.8-7.6-17-13.8
		c-8.8-12.5-9.6-27.8-1.8-33.3c2.1-1.4,4.5-2.1,7-2c1.8,0.1,3.5,0.4,5.2,0.9c2.7,17.2,8.4,33.8,16.9,49
		C207,253,203.4,252.7,200.1,251.5L200.1,251.5z M300.5,272h-57c-19.8-22.4-32.1-50.3-35.2-80h127.4
		C332.5,221.7,320.2,249.6,300.5,272z"/>
	<path d="M227.3,158.4l9.5-12.9c-3.6-2.6-4.8-4.7-4.7-5.7c0.1-1.5,2.5-3.9,4.7-5.4c6.9-4,11.2-11.4,11.3-19.4
		c-1-7.5-5.4-14.1-11.9-17.9l-8.3,13.7c1.7,1.1,4.1,3.5,4.2,5c0,1-1.2,3.1-4.1,5.3c-6.5,3.8-10.9,10.4-11.9,17.9
		C216.1,147,220.3,154.4,227.3,158.4z"/>
	<path d="M267.3,158.4l9.5-12.9c-3.6-2.6-4.8-4.7-4.7-5.7c0.1-1.5,2.5-3.9,4.7-5.4c6.9-4,11.2-11.4,11.3-19.4
		c-1-7.5-5.4-14.1-11.9-17.9l-8.3,13.7c1.7,1.1,4.1,3.5,4.2,5c0,1-1.2,3.1-4.1,5.3c-6.5,3.8-10.9,10.4-11.9,17.9
		C256.1,147,260.3,154.4,267.3,158.4z"/>
	<path d="M307.3,158.4l9.5-12.9c-3.6-2.6-4.8-4.7-4.7-5.7c0.1-1.5,2.5-3.9,4.7-5.4c6.9-4,11.2-11.4,11.3-19.4
		c-1-7.5-5.4-14.1-11.9-17.9l-8.3,13.7c1.7,1.1,4.1,3.5,4.2,5c0,1-1.2,3.1-4.1,5.3c-6.5,3.8-10.9,10.4-11.9,17.9
		C296.1,147,300.3,154.4,307.3,158.4z"/>
</g>
</svg>
