<svg id="Layer_1" data-name="Layer 1" xmlns="http://www.w3.org/2000/svg" viewBox="0 0 172.99 41.99"><defs><style>.cls-1{fill:#6b3816;}.cls-2{fill:#937367;}</style></defs><title>coffee_rating_3</title><path class="cls-1" d="M25,13.85a35.91,35.91,0,0,1-1,4.35c-2.24,6.24-1.34,12,2.18,17.55A30.68,30.68,0,0,1,29.3,42c1.36,3.95.55,7.83-1.3,11.44a3.33,3.33,0,0,1-2.34,1.38,9.73,9.73,0,0,1-9.5-5c-5.89-9.85-6.07-20-.85-30.23A10.45,10.45,0,0,1,25,13.85Z" transform="translate(-11.56 -13.21)"/><path class="cls-1" d="M30.63,54.15c.74-1.91,1.29-3.21,1.75-4.53A13.45,13.45,0,0,0,30.05,35.9C24.48,29.11,25.41,21.73,28,14.23c.19-.56,1.59-1.12,2.32-1,4.55.69,7.54,3.69,9.47,7.54,4.43,8.84,4.38,17.78-.35,26.54A13.59,13.59,0,0,1,30.63,54.15Z" transform="translate(-11.56 -13.21)"/><path class="cls-1" d="M59.92,14a38.57,38.57,0,0,1-1,4.36c-2.24,6.23-1.35,12,2.17,17.54a30.55,30.55,0,0,1,3.14,6.29c1.36,3.94.55,7.82-1.31,11.43A3.22,3.22,0,0,1,60.58,55a9.73,9.73,0,0,1-9.5-5c-5.89-9.85-6.07-20-.85-30.22A10.43,10.43,0,0,1,59.92,14Z" transform="translate(-11.56 -13.21)"/><path class="cls-1" d="M65.55,54.3c.74-1.91,1.29-3.2,1.75-4.53A13.46,13.46,0,0,0,65,36.05c-5.57-6.79-4.64-14.16-2.06-21.67.19-.55,1.59-1.11,2.32-1,4.55.7,7.53,3.69,9.47,7.55,4.43,8.84,4.38,17.78-.35,26.53A13.59,13.59,0,0,1,65.55,54.3Z" transform="translate(-11.56 -13.21)"/><path class="cls-1" d="M95.77,14.16a38.57,38.57,0,0,1-1,4.36c-2.24,6.23-1.35,12,2.17,17.54a30.55,30.55,0,0,1,3.14,6.29c1.36,3.94.55,7.82-1.31,11.43a3.22,3.22,0,0,1-2.33,1.38,9.73,9.73,0,0,1-9.5-5c-5.9-9.85-6.07-20.05-.85-30.22A10.43,10.43,0,0,1,95.77,14.16Z" transform="translate(-11.56 -13.21)"/><path class="cls-1" d="M101.4,54.46c.74-1.91,1.29-3.2,1.75-4.53a13.46,13.46,0,0,0-2.33-13.72c-5.57-6.79-4.64-14.16-2.06-21.67.19-.55,1.59-1.11,2.32-1,4.55.7,7.53,3.69,9.47,7.55,4.43,8.84,4.38,17.78-.35,26.53A13.59,13.59,0,0,1,101.4,54.46Z" transform="translate(-11.56 -13.21)"/><path class="cls-2" d="M131.14,14.16a38.57,38.57,0,0,1-1,4.36c-2.24,6.23-1.35,12,2.17,17.54a30.55,30.55,0,0,1,3.14,6.29c1.36,3.94.55,7.82-1.31,11.43a3.22,3.22,0,0,1-2.33,1.38,9.73,9.73,0,0,1-9.5-5c-5.9-9.85-6.07-20.05-.85-30.22A10.43,10.43,0,0,1,131.14,14.16Z" transform="translate(-11.56 -13.21)"/><path class="cls-2" d="M136.77,54.46c.74-1.91,1.29-3.2,1.75-4.53a13.46,13.46,0,0,0-2.33-13.72c-5.57-6.79-4.64-14.16-2.06-21.67.19-.55,1.59-1.11,2.32-1,4.55.7,7.53,3.69,9.47,7.55,4.43,8.84,4.38,17.78-.35,26.53A13.59,13.59,0,0,1,136.77,54.46Z" transform="translate(-11.56 -13.21)"/><path class="cls-2" d="M166.51,14a38.57,38.57,0,0,1-1,4.36c-2.24,6.23-1.35,12,2.17,17.54a30.55,30.55,0,0,1,3.14,6.29c1.36,3.94.55,7.82-1.31,11.43A3.22,3.22,0,0,1,167.17,55a9.73,9.73,0,0,1-9.5-5c-5.9-9.85-6.07-20-.85-30.22A10.43,10.43,0,0,1,166.51,14Z" transform="translate(-11.56 -13.21)"/><path class="cls-2" d="M172.14,54.3c.74-1.91,1.29-3.2,1.75-4.53a13.46,13.46,0,0,0-2.33-13.72c-5.57-6.79-4.64-14.16-2.06-21.67.19-.55,1.59-1.11,2.32-1,4.55.7,7.53,3.69,9.47,7.55,4.43,8.84,4.38,17.78-.36,26.53A13.55,13.55,0,0,1,172.14,54.3Z" transform="translate(-11.56 -13.21)"/></svg>