<?xml version="1.0" encoding="utf-8"?>
<!-- Generator: Adobe Illustrator 24.0.3, SVG Export Plug-In . SVG Version: 6.00 Build 0)  -->
<svg version="1.1" id="Capa_1" xmlns="http://www.w3.org/2000/svg" xmlns:xlink="http://www.w3.org/1999/xlink" x="0px" y="0px"
	 viewBox="0 0 528.9 526.3" style="enable-background:new 0 0 528.9 526.3;" xml:space="preserve">
<style type="text/css">
	.st0{fill:#FC941C;}
</style>
<title>edit</title>
<path class="st0" d="M328.9,87.8l107.6,107.6L164.1,467.8L56.6,360.2L328.9,87.8z M518.1,61.9l-48-48c-18.6-18.6-48.7-18.6-67.3,0
	l-46,46l107.7,107.6l53.6-53.6C532.5,99.5,532.5,76.3,518.1,61.9C518.2,61.9,518.1,61.9,518.1,61.9z M0.3,511.4
	C-1.2,518,3,524.5,9.6,526c1.8,0.4,3.7,0.4,5.5,0L135,496.9L27.5,389.3L0.3,511.4z"/>
</svg>
