<svg id="Capa_1" data-name="Capa 1" xmlns="http://www.w3.org/2000/svg" viewBox="0 0 512 512"><defs><style>.cls-1{fill:#fff;}</style></defs><title>list</title><path class="cls-1" d="M492,236H144.26a20,20,0,1,0,0,40H492a20,20,0,0,0,0-40Z"/><path class="cls-1" d="M492,86H144.26a20,20,0,1,0,0,40H492a20,20,0,0,0,0-40Z"/><path class="cls-1" d="M492,386H144.26a20,20,0,1,0,0,40H492a20,20,0,0,0,0-40Z"/><circle class="cls-1" cx="27" cy="106" r="27"/><circle class="cls-1" cx="27" cy="256" r="27"/><circle class="cls-1" cx="27" cy="406" r="27"/></svg>