<?xml version="1.0" encoding="utf-8"?>
<!-- Generator: Adobe Illustrator 24.0.3, SVG Export Plug-In . SVG Version: 6.00 Build 0)  -->
<svg version="1.1" id="Layer_1" xmlns="http://www.w3.org/2000/svg" xmlns:xlink="http://www.w3.org/1999/xlink" x="0px" y="0px"
	 viewBox="0 0 512 512" style="enable-background:new 0 0 512 512;" xml:space="preserve">
<style type="text/css">
	.st0{fill:#FFFFFF;}
</style>
<path class="st0" d="M255.9,512C139,512,44,417,44,300.1C44,205,108,121,199.7,95.8c9.4-2.5,19.1,2.9,21.7,12.4
	c2.6,9.4-2.9,19.1-12.4,21.7c-76.4,21-129.7,91-129.7,170.3c0,97.3,79.2,176.6,176.6,176.6c97.4,0,176.6-79.2,176.6-176.6
	c0-77.4-51.8-147-125.9-169.2c-9.3-2.8-14.6-12.6-11.9-22c2.8-9.3,12.7-14.6,22-11.8c88.9,26.6,151.1,110.1,151.1,203
	C467.7,417,372.7,512,255.9,512z"/>
<path class="st0" d="M255.9,229.5c-9.8,0-17.7-5.9-17.7-13.1V72.1c0-7.3,7.9-13.1,17.7-13.1s17.7,5.9,17.7,13.1v144.3
	C273.5,223.7,265.6,229.5,255.9,229.5z"/>
</svg>
