<?xml version="1.0" encoding="utf-8"?>
<!-- Generator: Adobe Illustrator 24.0.3, SVG Export Plug-In . SVG Version: 6.00 Build 0)  -->
<svg version="1.1" id="Layer_1" xmlns="http://www.w3.org/2000/svg" xmlns:xlink="http://www.w3.org/1999/xlink" x="0px" y="0px"
	 viewBox="0 0 512 512" style="enable-background:new 0 0 512 512;" xml:space="preserve">
<style type="text/css">
	.st0{fill:#FFFFFF;}
</style>
<g id="XMLID_1159_">
	<g id="XMLID_162_">
		<path id="XMLID_168_" class="st0" d="M299.3,381c-2.8-4.8-8.9-6.4-13.7-3.7L266,388.7V366c0-5.5-4.5-10-10-10s-10,4.5-10,10v22.7
			l-19.6-11.3c-4.8-2.8-10.9-1.1-13.7,3.7s-1.1,10.9,3.7,13.7L236,406l-19.6,11.3c-4.8,2.8-6.4,8.9-3.7,13.7c1.9,3.2,5.2,5,8.7,5
			c1.7,0,3.4-0.4,5-1.3l19.6-11.3V446c0,5.5,4.5,10,10,10s10-4.5,10-10v-22.7l19.6,11.3c1.6,0.9,3.3,1.3,5,1.3c3.5,0,6.8-1.8,8.7-5
			c2.8-4.8,1.1-10.9-3.7-13.7L276,406l19.6-11.3C300.4,391.9,302.1,385.8,299.3,381z"/>
		<path id="XMLID_195_" class="st0" d="M162.3,381c-2.8-4.8-8.9-6.4-13.7-3.7L129,388.7V366c0-5.5-4.5-10-10-10c-5.5,0-10,4.5-10,10
			v22.7l-19.6-11.3c-4.8-2.8-10.9-1.1-13.7,3.7c-2.8,4.8-1.1,10.9,3.7,13.7L99,406l-19.6,11.3c-4.8,2.8-6.4,8.9-3.7,13.7
			c1.9,3.2,5.2,5,8.7,5c1.7,0,3.4-0.4,5-1.3l19.6-11.3V446c0,5.5,4.5,10,10,10c5.5,0,10-4.5,10-10v-22.7l19.6,11.3
			c1.6,0.9,3.3,1.3,5,1.3c3.5,0,6.8-1.8,8.7-5c2.8-4.8,1.1-10.9-3.7-13.7L139,406l19.6-11.3C163.4,391.9,165.1,385.8,162.3,381z"/>
		<path id="XMLID_859_" class="st0" d="M349.7,431c1.9,3.2,5.2,5,8.7,5c1.7,0,3.4-0.4,5-1.3l19.6-11.3V446c0,5.5,4.5,10,10,10
			s10-4.5,10-10v-22.7l19.6,11.3c1.6,0.9,3.3,1.3,5,1.3c3.5,0,6.8-1.8,8.7-5c2.8-4.8,1.1-10.9-3.7-13.7L413,406l19.6-11.3
			c4.8-2.8,6.4-8.9,3.7-13.7c-2.8-4.8-8.9-6.4-13.7-3.7L403,388.7V366c0-5.5-4.5-10-10-10s-10,4.5-10,10v22.7l-19.6-11.3
			c-4.8-2.8-10.9-1.1-13.7,3.7s-1.1,10.9,3.7,13.7L373,406l-19.6,11.3C348.6,420.1,346.9,426.2,349.7,431z"/>
		<path id="XMLID_860_" class="st0" d="M462,300H301.1c-5.5,0-10,4.5-10,10c0,5.5,4.5,10,10,10H462c16.5,0,30,13.5,30,30v112
			c0,16.5-13.5,30-30,30H50c-16.5,0-30-13.5-30-30V350c0-16.5,13.5-30,30-30h161.1c5.5,0,10-4.5,10-10c0-5.5-4.5-10-10-10H50
			c-27.6,0-50,22.4-50,50v112c0,27.6,22.4,50,50,50h412c27.6,0,50-22.4,50-50V350C512,322.4,489.6,300,462,300L462,300z"/>
		<path id="XMLID_861_" class="st0" d="M256,213c5.5,0,10-4.5,10-10v-42.7c0-5.5-4.5-10-10-10s-10,4.5-10,10V203
			C246,208.5,250.5,213,256,213z"/>
		<path id="XMLID_864_" class="st0" d="M184,276h144c23.2,0,42-18.8,42-42V129.3c0-23.2-18.8-42-42-42h-2V70c0-38.6-31.4-70-70-70
			s-70,31.4-70,70v17.3h-2c-23.2,0-42,18.8-42,42V234C142,257.2,160.8,276,184,276z M206,70c0-27.6,22.4-50,50-50s50,22.4,50,50
			v17.3H206V70z M162,129.3c0-12.1,9.9-22,22-22h144c12.1,0,22,9.9,22,22V234c0,12.1-9.9,22-22,22H184c-12.1,0-22-9.9-22-22V129.3z"
			/>
		<path id="XMLID_1026_" class="st0" d="M256.1,320.1c2.6,0,5.2-1.1,7.1-2.9c1.9-1.9,2.9-4.4,2.9-7.1c0-2.6-1.1-5.2-2.9-7.1
			c-1.9-1.9-4.4-2.9-7.1-2.9c-2.6,0-5.2,1.1-7.1,2.9c-1.9,1.9-2.9,4.4-2.9,7.1c0,2.6,1.1,5.2,2.9,7.1
			C250.9,319,253.4,320.1,256.1,320.1z"/>
	</g>
</g>
</svg>
