<?xml version="1.0" encoding="utf-8"?>
<!-- Generator: Adobe Illustrator 24.0.3, SVG Export Plug-In . SVG Version: 6.00 Build 0)  -->
<svg version="1.1" id="Layer_1" xmlns="http://www.w3.org/2000/svg" xmlns:xlink="http://www.w3.org/1999/xlink" x="0px" y="0px"
	 viewBox="0 0 512 512" style="enable-background:new 0 0 512 512;" xml:space="preserve">
<style type="text/css">
	.st0{fill:#FC941C;}
</style>
<path class="st0" d="M385.7,469.3c-41.2,0-74.7-33.5-74.7-74.7s33.5-74.7,74.7-74.7s74.7,33.5,74.7,74.7
	C460.3,435.8,426.8,469.3,385.7,469.3z M385.7,352c-23.5,0-42.7,19.1-42.7,42.7s19.1,42.7,42.7,42.7s42.7-19.1,42.7-42.7
	S409.2,352,385.7,352z"/>
<path class="st0" d="M385.7,512c-8.8,0-16-7.2-16-16v-42.7c0-8.8,7.2-16,16-16s16,7.2,16,16V496C401.7,504.8,394.5,512,385.7,512z"
	/>
<path class="st0" d="M385.7,352c-8.8,0-16-7.2-16-16v-42.7c0-8.8,7.2-16,16-16s16,7.2,16,16V336C401.7,344.8,394.5,352,385.7,352z"
	/>
<path class="st0" d="M436.4,381.4c-5.5,0-10.9-2.9-13.9-8c-4.4-7.7-1.8-17.4,5.8-21.9l36.9-21.3c7.6-4.4,17.4-1.8,21.9,5.8
	c4.4,7.7,1.8,17.4-5.8,21.9l-36.9,21.3C441.9,380.8,439.2,381.4,436.4,381.4z"/>
<path class="st0" d="M298,461.2c-5.5,0-10.9-2.9-13.9-8c-4.4-7.7-1.8-17.4,5.8-21.9l36.9-21.3c7.6-4.4,17.4-1.8,21.9,5.8
	c4.4,7.7,1.8,17.4-5.8,21.9L306,459.1C303.5,460.5,300.7,461.2,298,461.2z"/>
<path class="st0" d="M334.9,381.4c-2.7,0-5.5-0.7-8-2.2L290,358c-7.6-4.4-10.3-14.2-5.8-21.9c4.4-7.6,14.2-10.3,21.9-5.8l36.9,21.3
	c7.6,4.4,10.3,14.2,5.8,21.9C345.8,378.6,340.4,381.4,334.9,381.4z"/>
<path class="st0" d="M473.3,461.2c-2.7,0-5.5-0.7-8-2.2l-36.9-21.3c-7.6-4.4-10.3-14.2-5.8-21.9c4.4-7.6,14.2-10.3,21.9-5.8
	l36.9,21.3c7.6,4.4,10.3,14.2,5.8,21.9C484.2,458.4,478.9,461.2,473.3,461.2z"/>
<path class="st0" d="M215,213.3c-58.8,0-106.7-47.8-106.7-106.7S156.2,0,215,0s106.7,47.9,106.7,106.7S273.8,213.3,215,213.3z
	 M215,32c-41.2,0-74.7,33.5-74.7,74.7s33.5,74.7,74.7,74.7s74.7-33.5,74.7-74.7S256.2,32,215,32z"/>
<path class="st0" d="M236.3,448H39c-8.8,0-16-7.2-16-16v-74.7C23,301.5,68.5,256,124.3,256h181.3c8.8,0,16,7.2,16,16s-7.2,16-16,16
	H124.3C86.1,288,55,319.1,55,357.3V416h181.3c8.8,0,16,7.2,16,16S245.2,448,236.3,448z"/>
</svg>
