<?xml version="1.0" encoding="utf-8"?>
<!-- Generator: Adobe Illustrator 24.0.3, SVG Export Plug-In . SVG Version: 6.00 Build 0)  -->
<svg version="1.1" id="Capa_1" xmlns="http://www.w3.org/2000/svg" xmlns:xlink="http://www.w3.org/1999/xlink" x="0px" y="0px"
	 viewBox="0 0 512 512" style="enable-background:new 0 0 512 512;" xml:space="preserve">
<style type="text/css">
	.st0{fill:#757575;}
</style>
<g>
	<g>
		<path class="st0" d="M506.1,493.1L358.9,340.4c30.6-35.2,49.4-81.7,49.4-132.7C408.2,98.1,322.3,9,216.7,9S25.1,98.1,25.1,207.7
			s85.9,198.7,191.6,198.7c49.2,0,94-19.5,127.9-51.2l147.2,152.7c2,2.1,4.6,3.1,7.1,3.1c2.6,0,5.2-1,7.1-3.1
			C510,503.8,510,497.2,506.1,493.1z M216.7,385.5c-94.5,0-171.4-79.8-171.4-177.8S122.2,29.9,216.7,29.9s171.4,79.8,171.4,177.8
			S311.2,385.5,216.7,385.5z"/>
	</g>
</g>
</svg>
